<?xml version="1.0" standalone="no"?>
<svg viewBox="0 0 200 200" xmlns="http://www.w3.org/2000/svg">
  <path fill="#55EFC4" d="M46.3,-71.8C58.4,-64.3,65.5,-48.7,72.7,-33.1C79.8,-17.6,87.1,-2,83.6,11C80.1,24,65.9,34.3,54.5,46.8C43.1,59.4,34.5,74,22.1,79.6C9.7,85.1,-6.6,81.7,-20.1,74.8C-33.5,67.9,-44,57.6,-50.9,46.1C-57.7,34.6,-60.9,21.9,-62.4,9.2C-63.9,-3.5,-63.8,-16.3,-59.1,-27.2C-54.4,-38.1,-45.2,-47.1,-34.6,-55.3C-24,-63.6,-12,-71,2.5,-75C17.1,-79,34.2,-79.4,46.3,-71.8Z" transform="translate(100 100)" />
</svg>
