<?xml version="1.0" standalone="no"?>
<svg viewBox="0 0 200 200" xmlns="http://www.w3.org/2000/svg">
  <path fill="#55EFC4" d="M36.7,-62.4C48.8,-56.5,60.7,-49.2,67,-38.6C73.3,-27.9,74.1,-14,76.3,1.3C78.5,16.5,82.2,33,76.5,44.9C70.9,56.7,55.9,63.8,41.6,70.5C27.3,77.2,13.6,83.5,-0.9,85.1C-15.4,86.6,-30.9,83.4,-42.7,75.3C-54.4,67.1,-62.6,53.9,-70.6,40.6C-78.7,27.2,-86.8,13.6,-86.9,-0.1C-87,-13.7,-79.1,-27.4,-69.6,-38.4C-60.2,-49.4,-49.1,-57.6,-37.2,-63.6C-25.4,-69.6,-12.7,-73.4,-0.2,-73C12.3,-72.7,24.6,-68.3,36.7,-62.4Z" transform="translate(100 100)" />
</svg>
