<?xml version="1.0" standalone="no"?><svg xmlns="http://www.w3.org/2000/svg" viewBox="0 0 1440 320"><path fill="#4da0dc" fill-opacity="1" d="M0,192L40,202.7C80,213,160,235,240,229.3C320,224,400,192,480,202.7C560,213,640,267,720,282.7C800,299,880,277,960,229.3C1040,181,1120,107,1200,90.7C1280,75,1360,117,1400,138.7L1440,160L1440,320L1400,320C1360,320,1280,320,1200,320C1120,320,1040,320,960,320C880,320,800,320,720,320C640,320,560,320,480,320C400,320,320,320,240,320C160,320,80,320,40,320L0,320Z"></path></svg>