<svg width="500" height="423" viewBox="0 0 500 423" fill="none" xmlns="http://www.w3.org/2000/svg">
<path d="M482.54 221.412C438.673 131.715 313.186 0.351449 150.14 0.000571445C-20.0115 -0.35828 -36.4628 168.398 55.2437 215.312C146.95 262.225 12.8593 320.694 108.713 379.434C205.738 438.892 413.075 433.31 464.111 387.058C515.148 340.806 501.496 260.16 482.54 221.412Z" fill="#CDCDCD"/>
<path d="M69.378 337.26C69.378 337.26 90.9091 313.289 88.6284 303.839C86.3477 294.389 99.7129 282.914 99.9681 269.15C100.271 253.56 91.9378 257.73 89.059 251.064C84.7847 241.183 94.2983 232.435 79.9203 228.656C70.0957 226.08 63.1739 231.112 64.0909 218.967C65.008 206.821 60.6061 191.789 52.7592 186.335C41.5231 178.536 18.6603 177.922 26.3637 193.64C34.4498 210.155 27.3206 237.348 25.4386 244.796C5.50241 323.504 69.378 337.26 69.378 337.26Z" fill="#55EFC4"/>
<path d="M45.3828 202.523C47.8469 222.85 73.3652 255.314 61.7863 277.021C50.2073 298.727 67.7831 332.308 67.7831 332.308" stroke="url(#paint0_linear)" stroke-width="0.93"/>
<path d="M134.673 291.861C120.686 296.805 135.829 314.9 120.534 323.049C105.239 331.199 85.63 335.33 84.7289 331.375C84.6651 331.112 83.8437 328.488 82.9745 324.652C82.7751 323.767 82.5758 322.81 82.3764 321.805C82.3285 321.526 82.2727 321.239 82.2169 320.952C81.6457 317.892 81.2596 314.8 81.0606 311.694C81.0606 311.598 81.0606 311.502 81.0606 311.407C80.9888 310.171 80.9649 308.927 80.9888 307.691C81.0128 306.455 81.0765 305.298 81.2041 304.158C81.6587 299.756 82.9187 295.697 85.4944 292.786C86.1534 292.03 86.9034 291.357 87.7273 290.785C98.3573 283.392 102.6 286.981 102.52 276.056C102.376 257.332 107.711 254.525 113.987 256.383C120.263 258.241 125.152 258.775 126.085 251.829C127.018 244.884 121.3 214.062 135.59 214.118C160.311 214.198 147.799 245.713 145.303 250.801C139.322 263.057 151.762 264.979 154.721 273.927C157.679 282.874 148.652 286.917 134.673 291.861Z" fill="#55EFC4"/>
<path d="M81.9936 358.281C81.9936 358.281 78.2376 323.815 104.506 304.501C116.372 295.777 138.429 264.628 136.403 230.912" stroke="url(#paint1_linear)" stroke-width="2.67"/>
<path d="M45.1675 262.435C48.429 256.901 71.89 279.724 67.7831 284.764C63.6763 289.804 42.0574 267.691 45.1675 262.435Z" fill="url(#paint2_linear)"/>
<path d="M39.2504 293.536C39.7129 287.092 68.0303 296.359 66.5789 302.722C65.1276 309.086 38.8038 299.684 39.2504 293.536Z" fill="url(#paint3_linear)"/>
<path d="M92.7034 265.107C97.7193 269.03 72.9585 290.362 68.5407 285.633C64.1228 280.904 87.9266 261.359 92.7034 265.107Z" fill="url(#paint4_linear)"/>
<path d="M90.1116 291.981C94.3301 296.766 70.4226 308.727 66.8261 303.321C63.2296 297.914 86.1244 287.435 90.1116 291.981Z" fill="url(#paint5_linear)"/>
<path d="M41.1244 316.71C39.8884 310.793 71.1085 314.198 71.3716 320.29C71.6348 326.383 42.3046 322.34 41.1244 316.71Z" fill="url(#paint6_linear)"/>
<path d="M88.5885 309.82C91.7783 315.29 69.4498 328.959 66.8581 322.986C64.2663 317.013 85.5024 304.604 88.5885 309.82Z" fill="url(#paint7_linear)"/>
<path d="M76.252 235.809C82.5518 236.271 74.4019 268.018 68.1659 266.55C61.9298 265.083 70.2472 235.37 76.252 235.809Z" fill="url(#paint8_linear)"/>
<path d="M47.5359 260.912C50.7974 255.378 74.2504 278.201 70.1435 283.241C66.0367 288.281 44.4258 266.183 47.5359 260.912Z" fill="url(#paint9_linear)"/>
<path d="M41.1324 292.228C41.6029 285.777 69.9202 295.043 68.4689 301.415C67.0175 307.786 40.6698 298.36 41.1324 292.228Z" fill="url(#paint10_linear)"/>
<path d="M93.6603 263.687C98.6762 267.619 73.9155 288.943 69.4976 284.222C65.0798 279.501 88.8836 259.947 93.6603 263.687Z" fill="url(#paint11_linear)"/>
<path d="M81.7145 302.938C82.1531 298.608 83.3573 294.628 85.8294 291.774C88.8278 291.175 91.3397 291.295 92.4322 292.571C94.7767 295.171 88.4291 300.051 81.7145 302.938Z" fill="url(#paint12_linear)"/>
<path d="M91.2919 290.968C95.5024 295.753 71.5949 307.715 68.0064 302.308C64.4179 296.901 87.2727 286.423 91.2919 290.968Z" fill="url(#paint13_linear)"/>
<path d="M69.8564 259.062C69.8564 259.062 70.5742 275.553 68.3891 289.955C66.2041 304.357 71.7145 328.711 80.6858 336.494" stroke="url(#paint14_linear)" stroke-width="1.55"/>
<path d="M41.1244 315.577C39.8884 309.668 71.1085 313.065 71.3716 319.158C71.6348 325.25 42.3046 321.215 41.1244 315.577Z" fill="url(#paint15_linear)"/>
<path d="M82.8549 320.266C82.807 319.995 82.7512 319.708 82.7034 319.469C82.1529 316.463 81.7828 313.428 81.5949 310.378C81.5949 310.282 81.5949 310.187 81.5949 310.091C86.6906 307.276 92.1292 305.848 93.5566 308.297C95.3668 311.327 89.1308 316.965 82.8549 320.266Z" fill="url(#paint16_linear)"/>
<path d="M92.4083 305.912C95.638 311.383 73.2695 325.051 70.6778 319.078C68.0861 313.105 89.3142 300.713 92.4083 305.912Z" fill="url(#paint17_linear)"/>
<path d="M77.7752 235.394C84.075 235.848 75.9251 267.603 69.697 266.136C63.4689 264.668 71.7704 234.955 77.7752 235.394Z" fill="url(#paint18_linear)"/>
<path d="M83.1818 387.73H63.7959C55.0463 387.725 47.6488 381.251 46.4833 372.579L41.6986 336.869C41.545 335.718 41.8944 334.555 42.6575 333.679C43.4207 332.803 44.5239 332.298 45.6858 332.292H101.348C102.51 332.295 103.615 332.8 104.379 333.677C105.143 334.553 105.491 335.717 105.335 336.869L100.55 372.579C99.3885 381.275 91.9553 387.76 83.1818 387.73Z" fill="#2C3E50"/>
<rect x="64.2026" y="24.8676" width="251.427" height="172.648" rx="11.45" fill="url(#paint19_linear)"/>
<path d="M330.71 364.198C329.3 364.187 327.964 363.567 327.046 362.496C326.128 361.426 325.72 360.01 325.925 358.616L337.416 273.4L346.89 274.493L335.526 360.019C335.183 362.419 330.71 364.198 330.71 364.198Z" fill="url(#paint20_linear)"/>
<path d="M327.536 338.185L331.794 345.896L341.228 352.013L345.191 351.478L350.534 339.517L348.939 334.07L342.161 330.88L327.536 338.185Z" fill="url(#paint21_linear)"/>
<path d="M380.303 93.9266C381.037 91.6778 381.443 85.7608 381.826 83.9027C378.836 84.3094 376.244 88.7831 376.244 91.4785C377.002 91.3828 379.466 93.3764 380.303 93.9266Z" fill="url(#paint22_linear)"/>
<path d="M339.753 234.971C331.778 236.327 308.907 240.282 302.943 247.73C298.349 253.472 294.968 270.306 286.914 290.067C284.577 284.198 281.619 273.552 280.136 267.978C278.07 260.211 276.148 242.898 293.78 238.408C305.423 235.442 330.941 234.397 339.753 234.971Z" fill="#2C3E50"/>
<path d="M325.837 234.421C325.837 234.421 306.22 236.407 297.305 247.284C290.327 255.801 284.051 281.726 284.051 281.726" stroke="#F3F6FD" stroke-linecap="round"/>
<path d="M415.678 357.938L403.884 271.104L411.858 267.914L425.199 356.271C425.75 359.413 423.333 359.987 420.949 360.418C418.565 360.848 416.268 361.144 415.678 357.938Z" fill="url(#paint23_linear)"/>
<path d="M384.888 368.344L374.801 269.357H384.641L394.665 367.643C394.888 370.697 392.56 370.577 390.263 370.92C387.711 371.303 385.167 371.797 384.888 368.344Z" fill="url(#paint24_linear)"/>
<path d="M421.403 257.826C419.322 273.209 396.683 275.37 370.367 276.223C369.569 276.63 340.494 276.455 326.954 271.885L327.424 167.722C327.424 158.951 331.188 144.413 344.019 144.198C365.55 143.839 405.55 140.553 421.196 145.394C424.777 158.241 427.384 172.443 421.419 209.565C417.998 230.817 422.408 250.474 421.403 257.826Z" fill="url(#paint25_linear)"/>
<path d="M415.47 151.853C420.255 166.207 419.649 174.501 413.278 197.683C402.663 236.319 420.088 256.152 383.27 275.641C405.598 274.365 419.633 270.92 421.404 257.826C422.408 250.442 417.998 230.817 421.404 209.565C425.797 182.22 433.995 159.876 423.094 146.67C420.08 143.018 413.876 147.005 415.47 151.853Z" fill="black"/>
<path d="M283.014 350.203C276.794 347.898 268.461 343.026 268.461 343.026C268.461 343.026 258.094 354.19 256.938 355.282C260.782 356.805 258.844 367.882 262.018 369.636C265.191 371.391 273.589 363.807 277.632 364.724C277.998 361.167 281.922 352.132 283.014 350.203Z" fill="url(#paint26_linear)"/>
<path d="M344.258 332.204L327.512 340.33C325.439 338.735 324.322 334.9 322.863 332.643C320.231 328.568 317.416 329.19 313.046 322.786L302.113 304.174L325.159 269.15L340.032 309.485C341.308 312.762 340.829 321.75 340.829 321.75C341.978 324.405 346.962 331.159 344.258 332.204Z" fill="#2C3E50"/>
<path d="M421.403 183.44C415.781 184.397 398.429 186.702 392.998 184.285C393.565 189.66 394.147 199.19 394.147 199.19C394.147 199.19 347.767 194.756 330.351 201.399C330.351 200.833 330.351 200.163 330.391 199.429C330.606 193.225 331.627 182.045 331.627 182.045C331.627 182.045 323.23 180.45 320.75 177.922C320.585 177.759 320.44 177.577 320.319 177.38C320.702 174.19 324.545 160.833 331.627 149.892C337.624 140.665 346.092 136.439 361.459 134.293L381.754 132.882C381.754 132.882 401.954 130.745 411.26 140.92C420.566 151.096 421.403 183.44 421.403 183.44Z" fill="url(#paint27_linear)"/>
<path d="M331.659 182.045C331.659 182.045 331.659 191.813 332.496 198.791C316.451 206.024 313.022 211.766 313.23 212.946L309.809 198.879L316.531 198.153L320.781 177.906C323.262 180.434 331.659 182.045 331.659 182.045Z" fill="url(#paint28_linear)"/>
<path d="M311.308 220.011H242.344L229.665 165.673C229.351 164.321 229.672 162.899 230.535 161.812C231.399 160.725 232.711 160.091 234.099 160.091H298.565L311.308 220.011Z" fill="url(#paint29_linear)"/>
<path d="M402.624 233.52C402.624 233.52 411.108 256.088 384.139 265.561C366.699 271.686 333.939 270.418 333.939 270.418L296.978 338.879C295.784 341.083 293.902 342.836 291.619 343.871L290.59 344.341C289.33 346.144 285.558 355.506 283.525 354.652L264.147 345.585C262.416 344.876 266.738 338.608 267.568 336.933C268.142 335.761 267.201 328.767 268.062 325.131C274.043 300.011 291.3 255.49 297.185 248.217C303.182 240.801 312.336 237.523 320.351 236.167C329.011 234.692 339.633 231.056 339.633 231.056L402.624 233.52Z" fill="#2C3E50"/>
<path d="M331.172 232.435C331.172 232.435 328.285 232.077 323.78 231.781" stroke="#17FF44" stroke-width="1.95"/>
<path d="M370.175 143.568C365.435 144.481 360.672 142.101 358.557 137.762C358.557 137.762 358.158 137.029 357.632 133.775L357.4 132.332L357.185 131L356.914 129.405C356.152 129.501 355.385 129.552 354.617 129.557C348.596 129.557 338.756 127.164 334.458 118.049C331.451 111.67 333.062 105.218 332.56 101.303C332.057 97.3875 330.08 94.8357 328.756 90.5614C327.057 85.0749 328.333 77.7384 330.869 75.7049C342.249 66.4864 365.718 70.3142 365.718 70.3142C365.718 70.3142 373.692 72.6108 372.895 88.7273C373.596 88.1052 372.528 91.6379 373.557 91.2791C375.71 90.5614 377.648 90.6411 379.083 91.4705C382.233 93.2647 383.006 98.5997 378.453 106.726C378.405 106.821 378.349 106.917 378.293 107.013C378.314 108.521 378.431 110.025 378.644 111.518C378.644 111.742 378.7 111.973 378.732 112.212C379.099 114.971 379.569 118.544 380.032 121.997C380.702 126.981 381.467 131.247 381.738 132.906C382.4 136.909 378.644 142.196 370.175 143.568Z" fill="url(#paint30_linear)"/>
<path d="M372.911 88.7034C373.708 72.5869 365.734 70.2903 365.734 70.2903C365.734 70.2903 342.265 66.4625 330.885 75.681C329.099 77.1164 329.187 80.2026 329.107 82.8581C333.525 78.2089 343.788 78.4721 351.754 77.6348C355.566 77.2361 354.41 81.5263 355.494 81.5742C363.708 78.9266 369.848 82.4195 369.912 94.5088L373.501 91.2711C372.616 91.3828 373.589 88.1053 372.911 88.7034Z" fill="url(#paint31_linear)"/>
<path d="M455.933 378.472H449.035C446.97 378.472 445.295 377.348 445.295 375.952V231.239H459.649V375.952C459.673 377.348 457.998 378.472 455.933 378.472Z" fill="#2C3E50"/>
<path d="M210.614 378.472H201.643C200.415 378.472 199.418 377.754 199.418 376.877V231.239H212.839V376.869C212.839 377.754 211.842 378.472 210.614 378.472Z" fill="#2C3E50"/>
<path d="M400.239 227.427L332.727 220.011V197.683L407.998 203.974L400.239 227.427Z" fill="#55EFC4"/>
<path d="M199.641 219.884H459.33C461.54 219.884 463.66 220.762 465.223 222.324C466.785 223.887 467.663 226.007 467.663 228.217V234.971H191.308V228.217C191.308 223.615 195.039 219.884 199.641 219.884V219.884Z" fill="black"/>
<path d="M340.51 216.622L339.785 219.86H311.308L296.403 162.93C296.225 162.25 296.373 161.527 296.802 160.971C297.231 160.415 297.894 160.09 298.596 160.091C299.639 160.095 300.544 160.809 300.789 161.821L309.809 198.879L313.23 212.938V212.994C313.227 213.039 313.227 213.084 313.23 213.129V213.177H337.624C338.5 213.151 339.339 213.528 339.902 214.2C340.465 214.872 340.689 215.764 340.51 216.622Z" fill="url(#paint32_linear)"/>
<path d="M382.169 82.9537C382.273 80.1308 381.73 77.1483 380.797 73.0893C378.796 64.3174 372.919 60.673 363.716 59.0223L354.944 58.0016C354.147 57.9139 339.442 56.8373 332.616 60.8644C330.048 62.3796 326.675 66.0558 326.715 68.504C326.818 74.756 326.715 78.0734 328.126 82.858C331.132 70.059 337.943 85.0431 353.971 71.9968C356.946 69.6045 356.635 75.8883 357.711 75.9362C366.986 72.9458 373.581 77.7624 371.866 93.9346C374.258 92.5072 375.853 91.0319 377.281 90.8405C379.091 88.5439 382.105 84.437 382.169 82.9537Z" fill="#1F1844"/>
<path d="M378.788 112.188C374.972 121.713 367.168 129.083 357.44 132.348L357.225 131.016L356.954 129.421C356.192 129.517 355.425 129.568 354.657 129.573C359.362 125.522 372.448 114.07 378.509 106.742C378.461 106.837 378.405 106.933 378.349 107.029C378.37 108.537 378.487 110.041 378.7 111.534C378.692 111.718 378.716 111.949 378.788 112.188Z" fill="url(#paint33_linear)"/>
<path d="M373.485 93.201C373.772 92.874 374.665 92.0686 374.665 92.0686L373.979 89.0861L369.769 91.9011C368.958 92.4427 368.525 93.3982 368.652 94.3652L370.064 104.963C364.226 108.544 350.925 118.831 348.413 119.254C345.223 119.788 344.155 115.801 342.432 116.726C340.71 117.651 340.965 120.051 339.769 120.051C339.147 120.051 335.072 117.499 333.732 115.777C333.732 115.777 335.805 122.539 336.252 123.751C337.281 126.51 343.285 132.069 343.285 132.069C343.902 132.682 344.767 132.977 345.63 132.866L353.158 131.957L356.946 129.604C362.225 126.566 374.45 114.604 374.49 112.962C374.753 103.4 370.614 96.4466 373.485 93.201Z" fill="#1A191F"/>
<path d="M374.801 96.1675C374.801 96.1675 376.491 92.9777 378.285 94.9713C380.08 96.9649 378.285 101.048 378.285 101.048L374.801 96.1675Z" fill="url(#paint34_linear)"/>
<path d="M420.088 183.679C420.016 190.514 419.514 206.008 416.587 212.627C412.775 221.247 407.552 221.144 393.277 218.743C379.003 216.343 355.359 207.842 348.006 207.842C340.654 207.842 336.045 213.161 336.045 213.161H313.11C312.903 211.981 312.998 205.904 330.423 199.429C333.341 198.193 341.754 197.172 349.043 196.646C369.059 195.203 393.7 198.855 393.7 198.855C393.7 198.855 393.596 189.66 393.03 184.285C398.389 186.678 415.112 184.429 420.088 183.679Z" fill="url(#paint35_linear)"/>
<path d="M373.397 200.171C373.397 200.171 380.686 199.573 380.686 205.681C380.686 211.789 373.397 211.845 373.397 211.845" stroke="#D6D9E8" stroke-width="5.49"/>
<path d="M374.25 219.86H356.116L353.581 194.062C353.532 193.382 353.776 192.714 354.251 192.225C354.726 191.736 355.388 191.473 356.069 191.502H373.453C374.122 191.473 374.773 191.725 375.248 192.198C375.722 192.671 375.976 193.321 375.949 193.99L374.25 219.86Z" fill="url(#paint36_linear)"/>
<path d="M233.78 359.868C233.78 359.868 226.22 358.201 223.325 359.238C220.431 360.274 219.689 362.427 219.474 364.732C219.258 367.037 221.707 370.314 231.101 373.799C240.724 377.227 250.526 380.134 260.463 382.507C263.533 383.129 268.748 384.054 273.222 383.799C275.74 383.621 277.851 381.829 278.437 379.373C278.668 378.455 278.977 377.559 279.362 376.694C280.16 375.099 279.864 373.217 280.327 371.909C280.79 370.601 281.882 361.542 279.362 360.234C276.842 358.927 272.695 366.67 267.049 366.032C261.404 365.394 260.774 358.329 260.774 358.329C260.774 358.329 263.469 355.864 262.026 354.142C260.582 352.419 262.233 351.032 261.093 350.354C259.952 349.676 255.893 352.085 255.893 352.085C255.893 352.085 242.855 357.451 237.743 359.604C236.707 359.995 233.78 359.868 233.78 359.868Z" fill="black"/>
<path d="M328.357 341.518C328.357 341.518 338.03 344.429 339.92 347.579C341.81 350.729 348.262 341.12 345.415 335.689C342.568 330.258 346.451 331.144 349.123 333.352C351.794 335.561 353.955 333.959 355.821 335.553C357.687 337.148 361.523 340.657 358.724 347.252C355.925 353.847 349.657 356.702 347.177 361.654C344.697 366.606 345.582 376.694 341.762 380.466C337.943 384.238 330.686 389.062 322.456 385.035C314.226 381.008 321.579 369.987 323.493 367.252C325.407 364.517 325.781 355.131 325.885 351.303C325.989 347.475 325.359 342.659 328.357 341.518Z" fill="black"/>
<defs>
<linearGradient id="paint0_linear" x1="79.4761" y1="282.526" x2="35.0151" y2="272.475" gradientUnits="userSpaceOnUse">
<stop stop-color="#3F3D9E"/>
<stop offset="0.99" stop-color="#423E9F"/>
</linearGradient>
<linearGradient id="paint1_linear" x1="80.908" y1="360.25" x2="137.381" y2="360.285" gradientUnits="userSpaceOnUse">
<stop stop-color="#BAC6D8"/>
<stop offset="0.99" stop-color="#D6DBF8"/>
</linearGradient>
<linearGradient id="paint2_linear" x1="78.5028" y1="273.245" x2="55.7618" y2="251.878" gradientUnits="userSpaceOnUse">
<stop stop-color="#1F1844"/>
<stop offset="0.99" stop-color="#3D3C99"/>
</linearGradient>
<linearGradient id="paint3_linear" x1="76.261" y1="296.637" x2="63.5605" y2="278.413" gradientUnits="userSpaceOnUse">
<stop stop-color="#1F1844"/>
<stop offset="0.99" stop-color="#3D3C99"/>
</linearGradient>
<linearGradient id="paint4_linear" x1="79.8797" y1="294.637" x2="100.02" y2="272.934" gradientUnits="userSpaceOnUse">
<stop stop-color="#1F1844"/>
<stop offset="0.99" stop-color="#3D3C99"/>
</linearGradient>
<linearGradient id="paint5_linear" x1="76.8937" y1="309.594" x2="89.2823" y2="291.471" gradientUnits="userSpaceOnUse">
<stop stop-color="#1F1844"/>
<stop offset="0.99" stop-color="#3D3C99"/>
</linearGradient>
<linearGradient id="paint6_linear" x1="77.0827" y1="315.383" x2="62.3655" y2="298.238" gradientUnits="userSpaceOnUse">
<stop stop-color="#1F1844"/>
<stop offset="0.99" stop-color="#3D3C99"/>
</linearGradient>
<linearGradient id="paint7_linear" x1="76.9221" y1="329.822" x2="91.7116" y2="312.097" gradientUnits="userSpaceOnUse">
<stop stop-color="#1F1844"/>
<stop offset="0.99" stop-color="#3D3C99"/>
</linearGradient>
<linearGradient id="paint8_linear" x1="69.8811" y1="227.891" x2="51.4745" y2="240.425" gradientUnits="userSpaceOnUse">
<stop offset="0.01" stop-color="#3D3C99"/>
<stop offset="1" stop-color="#1F1844"/>
</linearGradient>
<linearGradient id="paint9_linear" x1="56.8387" y1="280.911" x2="63.5919" y2="274.373" gradientUnits="userSpaceOnUse">
<stop stop-color="#E0E4EB"/>
<stop offset="0.99" stop-color="#F3F6FD"/>
</linearGradient>
<linearGradient id="paint10_linear" x1="61.4691" y1="304.883" x2="62.1855" y2="295.677" gradientUnits="userSpaceOnUse">
<stop stop-color="#E0E4EB"/>
<stop offset="0.99" stop-color="#F3F6FD"/>
</linearGradient>
<linearGradient id="paint11_linear" x1="62.9745" y1="270.144" x2="67.717" y2="278.184" gradientUnits="userSpaceOnUse">
<stop stop-color="#E0E4EB"/>
<stop offset="0.99" stop-color="#F3F6FD"/>
</linearGradient>
<linearGradient id="paint12_linear" x1="85.8911" y1="307.115" x2="95.9635" y2="297.314" gradientUnits="userSpaceOnUse">
<stop offset="0.01" stop-color="#BBC0D9"/>
<stop offset="1" stop-color="#D6DBF8"/>
</linearGradient>
<linearGradient id="paint13_linear" x1="67.2957" y1="305.933" x2="68.9857" y2="314.91" gradientUnits="userSpaceOnUse">
<stop stop-color="#E0E4EB"/>
<stop offset="0.99" stop-color="#F3F6FD"/>
</linearGradient>
<linearGradient id="paint14_linear" x1="66.2843" y1="340.988" x2="79.788" y2="340.901" gradientUnits="userSpaceOnUse">
<stop stop-color="#E0E4EB"/>
<stop offset="0.99" stop-color="#F3F6FD"/>
</linearGradient>
<linearGradient id="paint15_linear" x1="73.3727" y1="330.376" x2="73.4131" y2="321.208" gradientUnits="userSpaceOnUse">
<stop stop-color="#E0E4EB"/>
<stop offset="0.99" stop-color="#F3F6FD"/>
</linearGradient>
<linearGradient id="paint16_linear" x1="86.2553" y1="323.154" x2="96.7945" y2="313.074" gradientUnits="userSpaceOnUse">
<stop offset="0.01" stop-color="#BBC0D9"/>
<stop offset="1" stop-color="#D6DBF8"/>
</linearGradient>
<linearGradient id="paint17_linear" x1="79.1826" y1="326.374" x2="81.1482" y2="336.739" gradientUnits="userSpaceOnUse">
<stop stop-color="#E0E4EB"/>
<stop offset="0.99" stop-color="#F3F6FD"/>
</linearGradient>
<linearGradient id="paint18_linear" x1="71.417" y1="227.469" x2="53.0134" y2="239.981" gradientUnits="userSpaceOnUse">
<stop stop-color="#E6EAF1"/>
<stop offset="0.99" stop-color="#F3F6FD"/>
</linearGradient>
<linearGradient id="paint19_linear" x1="64.2026" y1="197.515" x2="315.63" y2="197.515" gradientUnits="userSpaceOnUse">
<stop offset="0.01" stop-color="#BBBFD9"/>
<stop offset="1" stop-color="#D6DBF8"/>
</linearGradient>
<linearGradient id="paint20_linear" x1="325.837" y1="364.3" x2="346.898" y2="364.3" gradientUnits="userSpaceOnUse">
<stop offset="0.01" stop-color="#BBBFD9"/>
<stop offset="1" stop-color="#D6DBF8"/>
</linearGradient>
<linearGradient id="paint21_linear" x1="355.767" y1="346.004" x2="347.178" y2="328.126" gradientUnits="userSpaceOnUse">
<stop stop-color="#E2BCA0"/>
<stop offset="1" stop-color="#C0885F"/>
</linearGradient>
<linearGradient id="paint22_linear" x1="376.22" y1="93.9521" x2="381.826" y2="93.9521" gradientUnits="userSpaceOnUse">
<stop stop-color="#753200"/>
<stop offset="1" stop-color="#A04400"/>
</linearGradient>
<linearGradient id="paint23_linear" x1="403.884" y1="360.737" x2="425.303" y2="360.737" gradientUnits="userSpaceOnUse">
<stop offset="0.01" stop-color="#BBBFD9"/>
<stop offset="1" stop-color="#D6DBF8"/>
</linearGradient>
<linearGradient id="paint24_linear" x1="374.809" y1="371.193" x2="394.689" y2="371.193" gradientUnits="userSpaceOnUse">
<stop offset="0.01" stop-color="#BBBFD9"/>
<stop offset="1" stop-color="#D6DBF8"/>
</linearGradient>
<linearGradient id="paint25_linear" x1="424.216" y1="274.955" x2="424.216" y2="143.352" gradientUnits="userSpaceOnUse">
<stop/>
<stop offset="0.145498"/>
<stop offset="0.39"/>
<stop offset="1"/>
</linearGradient>
<linearGradient id="paint26_linear" x1="273.711" y1="375.353" x2="286.718" y2="352.519" gradientUnits="userSpaceOnUse">
<stop stop-color="#E2BCA0"/>
<stop offset="1" stop-color="#C0885F"/>
</linearGradient>
<linearGradient id="paint27_linear" x1="385.207" y1="206.174" x2="500.327" y2="206.174" gradientUnits="userSpaceOnUse">
<stop stop-color="#55EFC4"/>
<stop offset="0.44" stop-color="#9D9CE8"/>
<stop offset="0.89" stop-color="#8988D5"/>
</linearGradient>
<linearGradient id="paint28_linear" x1="332.706" y1="202.169" x2="319.596" y2="185.928" gradientUnits="userSpaceOnUse">
<stop stop-color="#E2BCA0"/>
<stop offset="1" stop-color="#C0885F"/>
</linearGradient>
<linearGradient id="paint29_linear" x1="209.641" y1="229.366" x2="316.93" y2="229.366" gradientUnits="userSpaceOnUse">
<stop offset="0.01" stop-color="#BBBFD9"/>
<stop offset="0.29" stop-color="#CACDE2"/>
<stop offset="0.84" stop-color="#F2F3F8"/>
<stop offset="1" stop-color="white"/>
</linearGradient>
<linearGradient id="paint30_linear" x1="323.395" y1="159.544" x2="368.38" y2="146.025" gradientUnits="userSpaceOnUse">
<stop stop-color="#E2BCA0"/>
<stop offset="1" stop-color="#C0885F"/>
</linearGradient>
<linearGradient id="paint31_linear" x1="358.836" y1="95.6162" x2="369.903" y2="73.0712" gradientUnits="userSpaceOnUse">
<stop stop-color="#A04400" stop-opacity="0.01"/>
<stop offset="0.18" stop-color="#9A4100" stop-opacity="0.14"/>
<stop offset="0.52" stop-color="#8A3B00" stop-opacity="0.52"/>
<stop offset="0.9" stop-color="#753200"/>
</linearGradient>
<linearGradient id="paint32_linear" x1="314.815" y1="228.74" x2="347.882" y2="205.053" gradientUnits="userSpaceOnUse">
<stop stop-color="white"/>
<stop offset="0.16" stop-color="#F2F3F8"/>
<stop offset="0.71" stop-color="#CACDE2"/>
<stop offset="0.99" stop-color="#BBBFD9"/>
</linearGradient>
<linearGradient id="paint33_linear" x1="368.878" y1="99.5763" x2="346.176" y2="119.365" gradientUnits="userSpaceOnUse">
<stop stop-color="#B8703B"/>
<stop offset="1" stop-color="#AD8B71"/>
</linearGradient>
<linearGradient id="paint34_linear" x1="378.064" y1="93.932" x2="374.725" y2="95.2562" gradientUnits="userSpaceOnUse">
<stop stop-color="#753200"/>
<stop offset="1" stop-color="#A04400"/>
</linearGradient>
<linearGradient id="paint35_linear" x1="313.418" y1="161.249" x2="313.137" y2="199.183" gradientUnits="userSpaceOnUse">
<stop stop-color="#E2BCA0"/>
<stop offset="1" stop-color="#C0885F"/>
</linearGradient>
<linearGradient id="paint36_linear" x1="353.565" y1="219.871" x2="375.957" y2="219.871" gradientUnits="userSpaceOnUse">
<stop stop-color="white"/>
<stop offset="0.16" stop-color="#F2F3F8"/>
<stop offset="0.71" stop-color="#CACDE2"/>
<stop offset="0.99" stop-color="#BBBFD9"/>
</linearGradient>
</defs>
</svg>
